<?xml version="1.0" encoding="UTF-8" standalone="no"?>
<!-- Created with Inkscape (http://www.inkscape.org/) -->

<svg
   xmlns:dc="http://purl.org/dc/elements/1.1/"
   xmlns:cc="http://creativecommons.org/ns#"
   xmlns:rdf="http://www.w3.org/1999/02/22-rdf-syntax-ns#"
   xmlns:svg="http://www.w3.org/2000/svg"
   xmlns="http://www.w3.org/2000/svg"
   xmlns:xlink="http://www.w3.org/1999/xlink"
   xmlns:sodipodi="http://sodipodi.sourceforge.net/DTD/sodipodi-0.dtd"
   xmlns:inkscape="http://www.inkscape.org/namespaces/inkscape"
   width="744.09448819"
   height="1052.3622047"
   id="svg2"
   version="1.1"
   inkscape:version="0.48.0 r9654"
   sodipodi:docname="stickers.svg">
  <defs
     id="defs4">
    <linearGradient
       inkscape:collect="always"
       id="linearGradient3995">
      <stop
         style="stop-color:#909090;stop-opacity:1;"
         offset="0"
         id="stop3997" />
      <stop
         style="stop-color:#909090;stop-opacity:0;"
         offset="1"
         id="stop3999" />
    </linearGradient>
    <linearGradient
       inkscape:collect="always"
       id="linearGradient3730">
      <stop
         style="stop-color:#ffff00;stop-opacity:1;"
         offset="0"
         id="stop3732" />
      <stop
         style="stop-color:#ffff00;stop-opacity:0;"
         offset="1"
         id="stop3734" />
    </linearGradient>
    <linearGradient
       inkscape:collect="always"
       id="linearGradient3693">
      <stop
         style="stop-color:#ff0000;stop-opacity:1;"
         offset="0"
         id="stop3695" />
      <stop
         style="stop-color:#ff0000;stop-opacity:0;"
         offset="1"
         id="stop3697" />
    </linearGradient>
    <linearGradient
       inkscape:collect="always"
       id="linearGradient4160">
      <stop
         style="stop-color:#77ff00;stop-opacity:1;"
         offset="0"
         id="stop4162" />
      <stop
         style="stop-color:#77ff00;stop-opacity:0;"
         offset="1"
         id="stop4164" />
    </linearGradient>
    <linearGradient
       inkscape:collect="always"
       id="linearGradient3746">
      <stop
         style="stop-color:#2e2e2e;stop-opacity:1;"
         offset="0"
         id="stop3748" />
      <stop
         style="stop-color:#2e2e2e;stop-opacity:0;"
         offset="1"
         id="stop3750" />
    </linearGradient>
    <linearGradient
       inkscape:collect="always"
       id="linearGradient3708">
      <stop
         style="stop-color:#00a3ff;stop-opacity:1;"
         offset="0"
         id="stop3710" />
      <stop
         style="stop-color:#00a3ff;stop-opacity:0;"
         offset="1"
         id="stop3712" />
    </linearGradient>
    <linearGradient
       inkscape:collect="always"
       id="linearGradient3698">
      <stop
         style="stop-color:#000000;stop-opacity:1;"
         offset="0"
         id="stop3700" />
      <stop
         style="stop-color:#000000;stop-opacity:0;"
         offset="1"
         id="stop3702" />
    </linearGradient>
    <inkscape:perspective
       sodipodi:type="inkscape:persp3d"
       inkscape:vp_x="0 : 526.18109 : 1"
       inkscape:vp_y="0 : 1000 : 0"
       inkscape:vp_z="744.09448 : 526.18109 : 1"
       inkscape:persp3d-origin="372.04724 : 350.78739 : 1"
       id="perspective10" />
    <inkscape:perspective
       id="perspective2902"
       inkscape:persp3d-origin="0.5 : 0.33333333 : 1"
       inkscape:vp_z="1 : 0.5 : 1"
       inkscape:vp_y="0 : 1000 : 0"
       inkscape:vp_x="0 : 0.5 : 1"
       sodipodi:type="inkscape:persp3d" />
    <filter
       inkscape:collect="always"
       id="filter3694"
       x="-1.6149255"
       width="4.229851"
       y="-0.027741219"
       height="1.0554824">
      <feGaussianBlur
         inkscape:collect="always"
         stdDeviation="1.8799193"
         id="feGaussianBlur3696" />
    </filter>
    <filter
       inkscape:collect="always"
       id="filter3782"
       x="-0.032571419"
       width="1.0651428"
       y="-0.12886973"
       height="1.2577395">
      <feGaussianBlur
         inkscape:collect="always"
         stdDeviation="5.2920096"
         id="feGaussianBlur3784" />
    </filter>
    <inkscape:perspective
       id="perspective3798"
       inkscape:persp3d-origin="0.5 : 0.33333333 : 1"
       inkscape:vp_z="1 : 0.5 : 1"
       inkscape:vp_y="0 : 1000 : 0"
       inkscape:vp_x="0 : 0.5 : 1"
       sodipodi:type="inkscape:persp3d" />
    <inkscape:perspective
       id="perspective3831"
       inkscape:persp3d-origin="0.5 : 0.33333333 : 1"
       inkscape:vp_z="1 : 0.5 : 1"
       inkscape:vp_y="0 : 1000 : 0"
       inkscape:vp_x="0 : 0.5 : 1"
       sodipodi:type="inkscape:persp3d" />
    <linearGradient
       inkscape:collect="always"
       id="linearGradient3698-9">
      <stop
         style="stop-color:#000000;stop-opacity:1;"
         offset="0"
         id="stop3700-1" />
      <stop
         style="stop-color:#000000;stop-opacity:0;"
         offset="1"
         id="stop3702-9" />
    </linearGradient>
    <filter
       color-interpolation-filters="sRGB"
       inkscape:collect="always"
       id="filter3694-9"
       x="-1.6149255"
       width="4.2298508"
       y="-0.02774122"
       height="1.0554824">
      <feGaussianBlur
         inkscape:collect="always"
         stdDeviation="1.8799193"
         id="feGaussianBlur3696-4" />
    </filter>
    <radialGradient
       inkscape:collect="always"
       xlink:href="#linearGradient3708-0"
       id="radialGradient3714-9"
       cx="185.54849"
       cy="81.692055"
       fx="185.54849"
       fy="81.692055"
       r="194.87785"
       gradientTransform="matrix(0.38025243,0.50284169,-0.50830966,0.38438735,57.002088,200.70643)"
       gradientUnits="userSpaceOnUse" />
    <linearGradient
       id="linearGradient3708-0">
      <stop
         style="stop-color:#77ff00;stop-opacity:1;"
         offset="0"
         id="stop3710-5" />
      <stop
         style="stop-color:#00a3ff;stop-opacity:0;"
         offset="1"
         id="stop3712-1" />
    </linearGradient>
    <linearGradient
       inkscape:collect="always"
       xlink:href="#linearGradient3746-7"
       id="linearGradient3752-1"
       x1="153.6013"
       y1="170.08443"
       x2="470.19247"
       y2="170.08443"
       gradientUnits="userSpaceOnUse" />
    <linearGradient
       inkscape:collect="always"
       id="linearGradient3746-7">
      <stop
         style="stop-color:#2e2e2e;stop-opacity:1;"
         offset="0"
         id="stop3748-8" />
      <stop
         style="stop-color:#2e2e2e;stop-opacity:0;"
         offset="1"
         id="stop3750-2" />
    </linearGradient>
    <filter
       color-interpolation-filters="sRGB"
       inkscape:collect="always"
       id="filter3782-8"
       x="-0.03257142"
       width="1.0651428"
       y="-0.12886973"
       height="1.2577395">
      <feGaussianBlur
         inkscape:collect="always"
         stdDeviation="5.2920096"
         id="feGaussianBlur3784-6" />
    </filter>
    <inkscape:perspective
       id="perspective3956"
       inkscape:persp3d-origin="0.5 : 0.33333333 : 1"
       inkscape:vp_z="1 : 0.5 : 1"
       inkscape:vp_y="0 : 1000 : 0"
       inkscape:vp_x="0 : 0.5 : 1"
       sodipodi:type="inkscape:persp3d" />
    <linearGradient
       inkscape:collect="always"
       xlink:href="#linearGradient3746-7"
       id="linearGradient3759"
       gradientUnits="userSpaceOnUse"
       x1="153.6013"
       y1="170.08443"
       x2="470.19247"
       y2="170.08443" />
    <linearGradient
       inkscape:collect="always"
       xlink:href="#linearGradient4160"
       id="linearGradient3761"
       gradientUnits="userSpaceOnUse"
       x1="-2.4089203"
       y1="376.40933"
       x2="170.47826"
       y2="279.90933" />
    <radialGradient
       inkscape:collect="always"
       xlink:href="#linearGradient3698-9"
       id="radialGradient3763"
       gradientUnits="userSpaceOnUse"
       gradientTransform="matrix(1,0,0,14.526229,-4,-2387.8375)"
       cx="98.396912"
       cy="176.68172"
       fx="98.396912"
       fy="176.68172"
       r="5.9087148" />
    <linearGradient
       inkscape:collect="always"
       xlink:href="#linearGradient3746-7"
       id="linearGradient3765"
       gradientUnits="userSpaceOnUse"
       x1="153.6013"
       y1="170.08443"
       x2="470.19247"
       y2="170.08443" />
    <linearGradient
       inkscape:collect="always"
       xlink:href="#linearGradient3693"
       id="linearGradient3767"
       gradientUnits="userSpaceOnUse"
       x1="261.12054"
       y1="377.02814"
       x2="472.32748"
       y2="295.24329" />
    <radialGradient
       inkscape:collect="always"
       xlink:href="#linearGradient3698-9"
       id="radialGradient3769"
       gradientUnits="userSpaceOnUse"
       gradientTransform="matrix(1,0,0,14.526229,-4,-2387.8375)"
       cx="98.396912"
       cy="176.68172"
       fx="98.396912"
       fy="176.68172"
       r="5.9087148" />
    <linearGradient
       inkscape:collect="always"
       xlink:href="#linearGradient3746-7"
       id="linearGradient3771"
       gradientUnits="userSpaceOnUse"
       x1="153.6013"
       y1="170.08443"
       x2="470.19247"
       y2="170.08443" />
    <linearGradient
       inkscape:collect="always"
       xlink:href="#linearGradient3730"
       id="linearGradient3773"
       gradientUnits="userSpaceOnUse"
       gradientTransform="translate(0,-26)"
       x1="502.09109"
       y1="423.53421"
       x2="681.47827"
       y2="351.40933" />
    <radialGradient
       inkscape:collect="always"
       xlink:href="#linearGradient3698-9"
       id="radialGradient3775"
       gradientUnits="userSpaceOnUse"
       gradientTransform="matrix(1,0,0,14.526229,-4,-2387.8375)"
       cx="98.396912"
       cy="176.68172"
       fx="98.396912"
       fy="176.68172"
       r="5.9087148" />
    <linearGradient
       inkscape:collect="always"
       xlink:href="#linearGradient3746"
       id="linearGradient3792"
       gradientUnits="userSpaceOnUse"
       x1="153.6013"
       y1="170.08443"
       x2="470.19247"
       y2="170.08443" />
    <radialGradient
       inkscape:collect="always"
       xlink:href="#linearGradient3708"
       id="radialGradient3794"
       gradientUnits="userSpaceOnUse"
       gradientTransform="matrix(0.82617701,1.0925275,-1.1044078,0.83516096,84.778905,-117.12269)"
       cx="185.54849"
       cy="81.692055"
       fx="185.54849"
       fy="81.692055"
       r="194.87785" />
    <radialGradient
       inkscape:collect="always"
       xlink:href="#linearGradient3698"
       id="radialGradient3796"
       gradientUnits="userSpaceOnUse"
       gradientTransform="matrix(1,0,0,14.526229,-4,-2387.8375)"
       cx="98.396908"
       cy="176.68172"
       fx="98.396908"
       fy="176.68172"
       r="5.9087148" />
    <inkscape:perspective
       id="perspective3845"
       inkscape:persp3d-origin="0.5 : 0.33333333 : 1"
       inkscape:vp_z="1 : 0.5 : 1"
       inkscape:vp_y="0 : 1000 : 0"
       inkscape:vp_x="0 : 0.5 : 1"
       sodipodi:type="inkscape:persp3d" />
    <radialGradient
       inkscape:collect="always"
       xlink:href="#linearGradient3995"
       id="radialGradient4001"
       cx="570.06396"
       cy="-22.405508"
       fx="570.06396"
       fy="-22.405508"
       r="112.23298"
       gradientTransform="matrix(2.9483609,-9.249284e-6,3.5289856e-7,0.1124922,-1110.6903,81.359712)"
       gradientUnits="userSpaceOnUse" />
  </defs>
  <sodipodi:namedview
     id="base"
     pagecolor="#ffffff"
     bordercolor="#666666"
     borderopacity="1.0"
     inkscape:pageopacity="0.0"
     inkscape:pageshadow="2"
     inkscape:zoom="0.70710678"
     inkscape:cx="548.00844"
     inkscape:cy="891.81673"
     inkscape:document-units="px"
     inkscape:current-layer="layer1"
     showgrid="false"
     inkscape:window-width="1280"
     inkscape:window-height="726"
     inkscape:window-x="0"
     inkscape:window-y="25"
     inkscape:window-maximized="1" />
  <metadata
     id="metadata7">
    <rdf:RDF>
      <cc:Work
         rdf:about="">
        <dc:format>image/svg+xml</dc:format>
        <dc:type
           rdf:resource="http://purl.org/dc/dcmitype/StillImage" />
        <dc:title />
      </cc:Work>
    </rdf:RDF>
  </metadata>
  <g
     inkscape:label="Layer 1"
     inkscape:groupmode="layer"
     id="layer1">
    <rect
       style="fill:#f2f2f2;fill-opacity:1;stroke:none"
       id="rect3686"
       width="743.23254"
       height="1050.3514"
       x="0.41421357"
       y="1.3621826"
       rx="2.4643645"
       ry="5.0329227" />
    <g
       id="g3777"
       transform="translate(0,-22)">
      <path
         transform="matrix(1,0,0,0.84027555,0,37.066136)"
         sodipodi:nodetypes="csscccc"
         id="path3716"
         d="m 46.91066,136.78157 c 185.7978,1.48679 242.04052,11.6883 358.90803,-15.90979 11.58654,-2.73614 25.54791,81.66135 15.88089,82.58061 -158.68434,15.0897 -230.0221,15.90979 -374.78892,15.90979 C 40.31216,219.36218 35,214.05002 35,207.45152 l 0,-58.75928 c 0,-6.59851 5.31216,-11.91067 11.91066,-11.91067 z"
         style="fill:url(#linearGradient3792);fill-opacity:1;fill-rule:evenodd;stroke:none;filter:url(#filter3782)" />
      <path
         sodipodi:nodetypes="csscccc"
         id="rect2908"
         d="m 46.91066,136.78157 c 185.7978,1.48679 242.04052,-20.83861 358.90803,-48.436701 11.58654,-2.736142 25.10578,79.547831 15.88089,82.580611 -123.329,40.54554 -230.0221,48.4367 -374.78892,48.4367 C 40.31216,219.36218 35,214.05002 35,207.45152 l 0,-58.75928 c 0,-6.59851 5.31216,-11.91067 11.91066,-11.91067 z"
         style="fill:#00659d;fill-opacity:1;fill-rule:evenodd;stroke:none" />
      <path
         style="fill:url(#radialGradient3794);fill-opacity:1;fill-rule:evenodd;stroke:none"
         d="m 46.91066,136.78157 c 185.7978,1.48679 242.04052,-20.83861 358.90803,-48.436701 11.58654,-2.736142 25.10578,79.547831 15.88089,82.580611 -123.329,40.54554 -230.0221,48.4367 -374.78892,48.4367 C 40.31216,219.36218 35,214.05002 35,207.45152 l 0,-58.75928 c 0,-6.59851 5.31216,-11.91067 11.91066,-11.91067 z"
         id="path3706"
         sodipodi:nodetypes="csscccc" />
      <path
         transform="matrix(2.3539323,0,0,0.8951432,-126.80703,22.235993)"
         style="opacity:0.93251534;fill:url(#radialGradient3796);fill-opacity:1;stroke:none;filter:url(#filter3694)"
         d="m 95.793814,97.36218 -2.734997,0 C 93.026232,97.36218 93,98.080368 93,98.972472 l 0,159.418498 c 0,0.89212 0.02623,1.61029 0.05882,1.61029 l 2.734997,0 0,-162.63908 z"
         id="path3688"
         sodipodi:nodetypes="ccccccc" />
      <path
         sodipodi:nodetypes="ccccccc"
         id="rect3683"
         d="m 15.793814,95.36218 77.538691,0 C 94.256297,95.36218 95,96.080368 95,96.972472 l 0,159.418498 c 0,0.89212 -0.743703,1.61029 -1.667495,1.61029 l -77.538691,0 0,-162.63908 z"
         style="opacity:0.93251534;fill:#ffffff;stroke:none" />
      <text
         xml:space="preserve"
         style="font-size:40px;font-style:normal;font-weight:normal;fill:#2f58b1;fill-opacity:1;stroke:none;font-family:ackbar;-inkscape-font-specification:ackbar"
         x="105.04671"
         y="203.97757"
         id="text3815"
         transform="matrix(0.99672266,-0.08089464,0.08089464,0.99672266,0,0)"><tspan
           sodipodi:role="line"
           id="tspan3817"
           x="105.04671"
           y="203.97757">SAMPLE</tspan></text>
      <text
         transform="matrix(0.99672266,-0.08089464,0.08089464,0.99672266,0,0)"
         id="text3786"
         y="202.56799"
         x="105.16111"
         style="font-size:40px;font-style:normal;font-weight:normal;fill:#ffffff;fill-opacity:1;stroke:none;font-family:ackbar;-inkscape-font-specification:ackbar"
         xml:space="preserve"><tspan
           y="202.56799"
           x="105.16111"
           id="tspan3788"
           sodipodi:role="line">SAMPLE</tspan></text>
      <text
         xml:space="preserve"
         style="font-size:39.42671585px;font-style:normal;font-weight:normal;fill:#2f58b1;fill-opacity:1;stroke:none;font-family:ackbar;-inkscape-font-specification:ackbar"
         x="256.50797"
         y="258.49796"
         id="text3819"
         transform="matrix(0.9203022,-0.30294521,0.28040015,0.99429743,0,0)"
         inkscape:transform-center-x="103.94159"
         inkscape:transform-center-y="63.052716"><tspan
           sodipodi:role="line"
           id="tspan3821"
           x="256.50797"
           y="258.49796">TEXT</tspan></text>
      <text
         inkscape:transform-center-y="63.052716"
         inkscape:transform-center-x="103.94159"
         transform="matrix(0.9203022,-0.30294521,0.28040015,0.99429743,0,0)"
         id="text3786-5"
         y="255.89496"
         x="257.30106"
         style="font-size:39.42671585px;font-style:normal;font-weight:normal;fill:#ffffff;fill-opacity:1;stroke:none;font-family:ackbar;-inkscape-font-specification:ackbar"
         xml:space="preserve"><tspan
           y="255.89496"
           x="257.30106"
           id="tspan3788-5"
           sodipodi:role="line">TEXT</tspan></text>
    </g>
    <g
       id="g3752"
       transform="translate(224,0)">
      <path
         transform="matrix(0.46025541,0,0,0.38674136,21.98214,271.67267)"
         sodipodi:nodetypes="csscccc"
         id="path3716-8"
         d="m 46.91066,136.78157 c 185.7978,1.48679 242.04052,11.6883 358.90803,-15.90979 11.58654,-2.73614 25.54791,81.66135 15.88089,82.58061 -158.68434,15.0897 -230.0221,15.90979 -374.78892,15.90979 C 40.31216,219.36218 35,214.05002 35,207.45152 l 0,-58.75928 c 0,-6.59851 5.31216,-11.91067 11.91066,-11.91067 z"
         style="fill:url(#linearGradient3759);fill-opacity:1;fill-rule:evenodd;stroke:none;filter:url(#filter3782-8)" />
      <path
         sodipodi:nodetypes="csscccc"
         id="rect2908-0"
         d="m 43.573025,317.56724 c 85.514445,0.6843 111.400455,-9.59108 165.189365,-22.29325 5.33277,-1.25933 11.55507,36.61231 7.30926,38.00817 -56.76284,18.6613 -105.86891,22.29325 -172.498625,22.29325 -3.036995,0 -5.481945,-2.44495 -5.481945,-5.48194 l 0,-27.04428 c 0,-3.037 2.44495,-5.48195 5.481945,-5.48195 z"
         style="fill:#739d00;fill-opacity:1;fill-rule:evenodd;stroke:none" />
      <path
         style="fill:url(#linearGradient3761);fill-opacity:1;fill-rule:evenodd;stroke:none"
         d="m 43.573025,317.56724 c 85.514445,0.6843 111.400455,-9.59108 165.189365,-22.29325 5.33277,-1.25933 11.55507,36.61231 7.30926,38.00817 -56.76284,18.6613 -105.86891,22.29325 -172.498625,22.29325 -3.036995,0 -5.481945,-2.44495 -5.481945,-5.48194 l 0,-27.04428 c 0,-3.037 2.44495,-5.48195 5.481945,-5.48195 z"
         id="path3706-5"
         sodipodi:nodetypes="csscccc" />
      <path
         transform="matrix(1.0834101,0,0,0.4119945,-36.381479,264.84702)"
         style="opacity:0.93251534;fill:url(#radialGradient3763);fill-opacity:1;stroke:none;filter:url(#filter3694-9)"
         d="m 95.793814,97.36218 -2.734997,0 C 93.026232,97.36218 93,98.080368 93,98.972472 l 0,159.418498 c 0,0.89212 0.02623,1.61029 0.05882,1.61029 l 2.734997,0 0,-162.63908 z"
         id="path3688-8"
         sodipodi:nodetypes="ccccccc" />
      <path
         sodipodi:nodetypes="ccccccc"
         id="rect3683-4"
         d="m 29.251327,298.50374 35.687603,0 c 0.425183,0 0.767475,0.33055 0.767475,0.74115 l 0,73.37322 c 0,0.41061 -0.342292,0.74115 -0.767475,0.74115 l -35.687603,0 0,-74.85552 z"
         style="opacity:0.93251534;fill:#ffffff;stroke:none" />
    </g>
    <g
       id="g3745"
       transform="translate(-256,0)">
      <path
         style="fill:url(#linearGradient3765);fill-opacity:1;fill-rule:evenodd;stroke:none;filter:url(#filter3782-8)"
         d="m 46.91066,136.78157 c 185.7978,1.48679 242.04052,11.6883 358.90803,-15.90979 11.58654,-2.73614 25.54791,81.66135 15.88089,82.58061 -158.68434,15.0897 -230.0221,15.90979 -374.78892,15.90979 C 40.31216,219.36218 35,214.05002 35,207.45152 l 0,-58.75928 c 0,-6.59851 5.31216,-11.91067 11.91066,-11.91067 z"
         id="path4059"
         sodipodi:nodetypes="csscccc"
         transform="matrix(0.46025541,0,0,0.38674136,261.98214,271.67267)" />
      <path
         style="fill:#800000;fill-opacity:1;fill-rule:evenodd;stroke:none"
         d="m 283.57303,317.56724 c 85.51444,0.6843 111.40045,-9.59108 165.18936,-22.29325 5.33277,-1.25933 11.55507,36.61231 7.30926,38.00817 -56.76284,18.6613 -105.86891,22.29325 -172.49862,22.29325 -3.037,0 -5.48195,-2.44495 -5.48195,-5.48194 l 0,-27.04428 c 0,-3.037 2.44495,-5.48195 5.48195,-5.48195 z"
         id="path4061"
         sodipodi:nodetypes="csscccc" />
      <path
         sodipodi:nodetypes="csscccc"
         id="path4063"
         d="m 283.57303,317.56724 c 85.51444,0.6843 111.40045,-9.59108 165.18936,-22.29325 5.33277,-1.25933 11.55507,36.61231 7.30926,38.00817 -56.76284,18.6613 -105.86891,22.29325 -172.49862,22.29325 -3.037,0 -5.48195,-2.44495 -5.48195,-5.48194 l 0,-27.04428 c 0,-3.037 2.44495,-5.48195 5.48195,-5.48195 z"
         style="fill:url(#linearGradient3767);fill-opacity:1;fill-rule:evenodd;stroke:none" />
      <path
         sodipodi:nodetypes="ccccccc"
         id="path4065"
         d="m 95.793814,97.36218 -2.734997,0 C 93.026232,97.36218 93,98.080368 93,98.972472 l 0,159.418498 c 0,0.89212 0.02623,1.61029 0.05882,1.61029 l 2.734997,0 0,-162.63908 z"
         style="opacity:0.93251534;fill:url(#radialGradient3769);fill-opacity:1;stroke:none;filter:url(#filter3694-9)"
         transform="matrix(1.0834101,0,0,0.4119945,203.61852,264.84702)" />
      <path
         style="opacity:0.93251534;fill:#ffffff;stroke:none"
         d="m 269.25133,298.50374 35.6876,0 c 0.42518,0 0.76748,0.33055 0.76748,0.74115 l 0,73.37322 c 0,0.41061 -0.3423,0.74115 -0.76748,0.74115 l -35.6876,0 0,-74.85552 z"
         id="path4067"
         sodipodi:nodetypes="ccccccc" />
    </g>
    <g
       id="g3738"
       transform="translate(-6,0)">
      <path
         transform="matrix(0.46025541,0,0,0.38674136,485.98214,271.67267)"
         sodipodi:nodetypes="csscccc"
         id="path4093"
         d="m 46.91066,136.78157 c 185.7978,1.48679 242.04052,11.6883 358.90803,-15.90979 11.58654,-2.73614 25.54791,81.66135 15.88089,82.58061 -158.68434,15.0897 -230.0221,15.90979 -374.78892,15.90979 C 40.31216,219.36218 35,214.05002 35,207.45152 l 0,-58.75928 c 0,-6.59851 5.31216,-11.91067 11.91066,-11.91067 z"
         style="fill:url(#linearGradient3771);fill-opacity:1;fill-rule:evenodd;stroke:none;filter:url(#filter3782-8)" />
      <path
         sodipodi:nodetypes="csscccc"
         id="path4095"
         d="m 507.57303,317.56724 c 85.51444,0.6843 111.40045,-9.59108 165.18936,-22.29325 5.33277,-1.25933 11.55507,36.61231 7.30926,38.00817 -56.76284,18.6613 -105.86891,22.29325 -172.49862,22.29325 -3.037,0 -5.48195,-2.44495 -5.48195,-5.48194 l 0,-27.04428 c 0,-3.037 2.44495,-5.48195 5.48195,-5.48195 z"
         style="fill:#d45500;fill-opacity:1;fill-rule:evenodd;stroke:none" />
      <path
         style="fill:url(#linearGradient3773);fill-opacity:1;fill-rule:evenodd;stroke:none"
         d="m 507.57303,317.56724 c 85.51444,0.6843 111.40045,-9.59108 165.18936,-22.29325 5.33277,-1.25933 11.55507,36.61231 7.30926,38.00817 -56.76284,18.6613 -105.86891,22.29325 -172.49862,22.29325 -3.037,0 -5.48195,-2.44495 -5.48195,-5.48194 l 0,-27.04428 c 0,-3.037 2.44495,-5.48195 5.48195,-5.48195 z"
         id="path4097"
         sodipodi:nodetypes="csscccc" />
      <path
         transform="matrix(1.0834101,0,0,0.4119945,427.61852,264.84702)"
         style="opacity:0.93251534;fill:url(#radialGradient3775);fill-opacity:1;stroke:none;filter:url(#filter3694-9)"
         d="m 95.793814,97.36218 -2.734997,0 C 93.026232,97.36218 93,98.080368 93,98.972472 l 0,159.418498 c 0,0.89212 0.02623,1.61029 0.05882,1.61029 l 2.734997,0 0,-162.63908 z"
         id="path4099"
         sodipodi:nodetypes="ccccccc" />
      <path
         sodipodi:nodetypes="ccccccc"
         id="path4101"
         d="m 493.25133,298.50374 35.6876,0 c 0.42518,0 0.76748,0.33055 0.76748,0.74115 l 0,73.37322 c 0,0.41061 -0.3423,0.74115 -0.76748,0.74115 l -35.6876,0 0,-74.85552 z"
         style="opacity:0.93251534;fill:#ffffff;stroke:none" />
    </g>
    <text
       xml:space="preserve"
       style="font-size:40px;font-style:normal;font-weight:normal;fill:#000000;fill-opacity:1;stroke:none;font-family:Bitstream Vera Sans"
       x="521"
       y="81.362183"
       id="text3813"><tspan
         sodipodi:role="line"
         x="521"
         y="81.362183"
         id="tspan3826" /></text>
    <text
       xml:space="preserve"
       style="font-size:15.53414154000000025px;font-style:normal;font-variant:normal;font-weight:bold;font-stretch:normal;line-height:125%;letter-spacing:0px;word-spacing:0px;fill:#cccccc;fill-opacity:1;stroke:none;font-family:Aharoni;-inkscape-font-specification:Aharoni Bold"
       x="559.6156"
       y="434.02353"
       id="text3116"
       sodipodi:linespacing="125%"><tspan
         sodipodi:role="line"
         id="tspan3118"
         x="559.6156"
         y="434.02353">FREEWEBELEMENTS.COM</tspan></text>
  </g>
</svg>
